<?xml version="1.0" encoding="UTF-8"?>
<svg xmlns="http://www.w3.org/2000/svg" width="1100" height="560"
     viewBox="0 0 1100 560" role="img" aria-label="Bloom Filter">

  <defs>
    <marker id="arrow" viewBox="0 0 10 10" refX="9" refY="5"
            markerWidth="7" markerHeight="7" orient="auto-start-reverse">
      <path d="M 0 0 L 10 5 L 0 10 z" fill="#5F6368"/>
    </marker>
  </defs>
<rect width="100%" height="100%" fill="#FFFFFF"/>
<text x="36" y="36" font-family="Helvetica,Arial,sans-serif" font-size="18" font-weight="700" fill="#202124">Bloom Filter</text>
<text x="36" y="56" font-family="Helvetica,Arial,sans-serif" font-size="11" fill="#5F6368">System Design Interview Guide</text>
<rect x="40" y="200" width="110" height="64" rx="10" ry="10" fill="#E8F0FE" stroke="#1A73E8" stroke-width="1.5"/>
<text x="95.0" y="229.0" text-anchor="middle" font-family="Helvetica,Arial,sans-serif" font-size="12" font-weight="700" fill="#202124">Item</text>
<text x="95.0" y="243.0" text-anchor="middle" font-family="Helvetica,Arial,sans-serif" font-size="12" font-weight="400" fill="#202124">&quot;url-42&quot;</text>
<rect x="200" y="120" width="90" height="50" rx="10" ry="10" fill="#F3E8FD" stroke="#A142F4" stroke-width="1.5"/>
<text x="245.0" y="149.0" text-anchor="middle" font-family="Helvetica,Arial,sans-serif" font-size="12" font-weight="700" fill="#202124">hash₁</text>
<rect x="200" y="200" width="90" height="50" rx="10" ry="10" fill="#F3E8FD" stroke="#A142F4" stroke-width="1.5"/>
<text x="245.0" y="229.0" text-anchor="middle" font-family="Helvetica,Arial,sans-serif" font-size="12" font-weight="700" fill="#202124">hash₂</text>
<rect x="200" y="280" width="90" height="50" rx="10" ry="10" fill="#F3E8FD" stroke="#A142F4" stroke-width="1.5"/>
<text x="245.0" y="309.0" text-anchor="middle" font-family="Helvetica,Arial,sans-serif" font-size="12" font-weight="700" fill="#202124">hash₃</text>
<rect x="360" y="180" width="200" height="80" rx="10" ry="10" fill="#E6F4EA" stroke="#34A853" stroke-width="1.5"/>
<text x="460.0" y="217.0" text-anchor="middle" font-family="Helvetica,Arial,sans-serif" font-size="12" font-weight="700" fill="#202124">Bit array m</text>
<text x="460.0" y="231.0" text-anchor="middle" font-family="Helvetica,Arial,sans-serif" font-size="12" font-weight="400" fill="#202124">[0 1 0 1 … 1 0]</text>
<rect x="620" y="120" width="130" height="56" rx="10" ry="10" fill="#FEF7E0" stroke="#F9AB00" stroke-width="1.5"/>
<text x="685.0" y="145.0" text-anchor="middle" font-family="Helvetica,Arial,sans-serif" font-size="12" font-weight="700" fill="#202124">Maybe</text>
<text x="685.0" y="159.0" text-anchor="middle" font-family="Helvetica,Arial,sans-serif" font-size="12" font-weight="400" fill="#202124">present</text>
<path d="M 620,270 L 620,320 A 65.0,10 0 0 0 750,320 L 750,270 A 65.0,10 0 0 0 620,270 Z" fill="#FCE8E6" stroke="#D93025" stroke-width="1.5"/>
<ellipse cx="685.0" cy="270" rx="65.0" ry="10" fill="#FCE8E6" stroke="#D93025" stroke-width="1.5"/>
<text x="685.0" y="292.0" text-anchor="middle" font-family="Helvetica,Arial,sans-serif" font-size="12" font-weight="700" fill="#202124">Definitely</text>
<text x="685.0" y="306.0" text-anchor="middle" font-family="Helvetica,Arial,sans-serif" font-size="12" font-weight="400" fill="#202124">NOT</text>
<path d="M 150,232.0 L 175.0,232.0 L 175.0,145.0 L 200,145.0" fill="none" stroke="#5F6368" stroke-width="1.5" marker-end="url(#arrow)"/>
<path d="M 150,232.0 L 200,225.0" fill="none" stroke="#5F6368" stroke-width="1.5" marker-end="url(#arrow)"/>
<path d="M 150,232.0 L 175.0,232.0 L 175.0,305.0 L 200,305.0" fill="none" stroke="#5F6368" stroke-width="1.5" marker-end="url(#arrow)"/>
<path d="M 290,145.0 L 325.0,145.0 L 325.0,220.0 L 360,220.0" fill="none" stroke="#5F6368" stroke-width="1.5" marker-end="url(#arrow)"/>
<path d="M 290,225.0 L 360,220.0" fill="none" stroke="#5F6368" stroke-width="1.5" marker-end="url(#arrow)"/>
<path d="M 290,305.0 L 325.0,305.0 L 325.0,220.0 L 360,220.0" fill="none" stroke="#5F6368" stroke-width="1.5" marker-end="url(#arrow)"/>
<path d="M 560,220.0 L 590.0,220.0 L 590.0,148.0 L 620,148.0" fill="none" stroke="#5F6368" stroke-width="1.5" marker-end="url(#arrow)"/>
<text x="590.0" y="178.0" text-anchor="middle" font-family="Helvetica,Arial,sans-serif" font-size="10" fill="#5F6368">all k bits = 1</text>
<path d="M 560,220.0 L 590.0,220.0 L 590.0,295.0 L 620,295.0" fill="none" stroke="#5F6368" stroke-width="1.5" marker-end="url(#arrow)"/>
<text x="590.0" y="251.5" text-anchor="middle" font-family="Helvetica,Arial,sans-serif" font-size="10" fill="#5F6368">any bit = 0</text>
<text x="40" y="414" font-family="Helvetica,Arial,sans-serif" font-size="11" fill="#5F6368">No false negatives (for inserts) · tunable FPR · crawlers / caches / DB existence checks</text>
<rect x="36" y="490" width="595" height="50" rx="8" ry="8" fill="#FFFFFF" stroke="#DADCE0" stroke-width="1"/>
<text x="46" y="504" font-family="Helvetica,Arial,sans-serif" font-size="10" font-weight="700" fill="#5F6368">Legend</text>
<rect x="48" y="514" width="16" height="16" rx="4" ry="4" fill="#E8F0FE" stroke="#1A73E8" stroke-width="1.5"/>
<text x="70" y="527" font-family="Helvetica,Arial,sans-serif" font-size="11" fill="#202124">Item</text>
<rect x="163" y="514" width="16" height="16" rx="4" ry="4" fill="#F3E8FD" stroke="#A142F4" stroke-width="1.5"/>
<text x="185" y="527" font-family="Helvetica,Arial,sans-serif" font-size="11" fill="#202124">Hashes</text>
<rect x="278" y="514" width="16" height="16" rx="4" ry="4" fill="#E6F4EA" stroke="#34A853" stroke-width="1.5"/>
<text x="300" y="527" font-family="Helvetica,Arial,sans-serif" font-size="11" fill="#202124">Bit array</text>
<rect x="393" y="514" width="16" height="16" rx="4" ry="4" fill="#FEF7E0" stroke="#F9AB00" stroke-width="1.5"/>
<text x="415" y="527" font-family="Helvetica,Arial,sans-serif" font-size="11" fill="#202124">Maybe</text>
<rect x="508" y="514" width="16" height="16" rx="4" ry="4" fill="#FCE8E6" stroke="#D93025" stroke-width="1.5"/>
<text x="530" y="527" font-family="Helvetica,Arial,sans-serif" font-size="11" fill="#202124">Absent</text>
</svg>
