<?xml version="1.0" encoding="UTF-8"?>
<svg xmlns="http://www.w3.org/2000/svg" width="1100" height="580"
     viewBox="0 0 1100 580" role="img" aria-label="DNS Resolution">

  <defs>
    <marker id="arrow" viewBox="0 0 10 10" refX="9" refY="5"
            markerWidth="7" markerHeight="7" orient="auto-start-reverse">
      <path d="M 0 0 L 10 5 L 0 10 z" fill="#5F6368"/>
    </marker>
  </defs>
<rect width="100%" height="100%" fill="#FFFFFF"/>
<text x="36" y="36" font-family="Helvetica,Arial,sans-serif" font-size="18" font-weight="700" fill="#202124">DNS Resolution</text>
<text x="36" y="56" font-family="Helvetica,Arial,sans-serif" font-size="11" fill="#5F6368">System Design Interview Guide</text>
<rect x="40" y="180" width="120" height="64" rx="10" ry="10" fill="#E8F0FE" stroke="#1A73E8" stroke-width="1.5"/>
<text x="100.0" y="209.0" text-anchor="middle" font-family="Helvetica,Arial,sans-serif" font-size="12" font-weight="700" fill="#202124">Browser /</text>
<text x="100.0" y="223.0" text-anchor="middle" font-family="Helvetica,Arial,sans-serif" font-size="12" font-weight="400" fill="#202124">OS stub</text>
<rect x="200" y="180" width="130" height="64" rx="10" ry="10" fill="#F3E8FD" stroke="#A142F4" stroke-width="1.5"/>
<text x="265.0" y="209.0" text-anchor="middle" font-family="Helvetica,Arial,sans-serif" font-size="12" font-weight="700" fill="#202124">Recursive</text>
<text x="265.0" y="223.0" text-anchor="middle" font-family="Helvetica,Arial,sans-serif" font-size="12" font-weight="400" fill="#202124">resolver</text>
<rect x="380" y="80" width="110" height="50" rx="10" ry="10" fill="#F3E8FD" stroke="#A142F4" stroke-width="1.5"/>
<text x="435.0" y="109.0" text-anchor="middle" font-family="Helvetica,Arial,sans-serif" font-size="12" font-weight="700" fill="#202124">Root NS</text>
<rect x="380" y="180" width="110" height="56" rx="10" ry="10" fill="#F3E8FD" stroke="#A142F4" stroke-width="1.5"/>
<text x="435.0" y="205.0" text-anchor="middle" font-family="Helvetica,Arial,sans-serif" font-size="12" font-weight="700" fill="#202124">TLD NS</text>
<text x="435.0" y="219.0" text-anchor="middle" font-family="Helvetica,Arial,sans-serif" font-size="12" font-weight="400" fill="#202124">(.com)</text>
<rect x="380" y="290" width="140" height="56" rx="10" ry="10" fill="#F3E8FD" stroke="#A142F4" stroke-width="1.5"/>
<text x="450.0" y="315.0" text-anchor="middle" font-family="Helvetica,Arial,sans-serif" font-size="12" font-weight="700" fill="#202124">Auth NS</text>
<text x="450.0" y="329.0" text-anchor="middle" font-family="Helvetica,Arial,sans-serif" font-size="12" font-weight="400" fill="#202124">(example.com)</text>
<rect x="580" y="180" width="140" height="64" rx="10" ry="10" fill="#FEF7E0" stroke="#F9AB00" stroke-width="1.5"/>
<text x="650.0" y="209.0" text-anchor="middle" font-family="Helvetica,Arial,sans-serif" font-size="12" font-weight="700" fill="#202124">CDN / origin</text>
<text x="650.0" y="223.0" text-anchor="middle" font-family="Helvetica,Arial,sans-serif" font-size="12" font-weight="400" fill="#202124">A/AAAA</text>
<rect x="200" y="320" width="130" height="56" rx="10" ry="10" fill="#E6F4EA" stroke="#34A853" stroke-width="1.5"/>
<text x="265.0" y="345.0" text-anchor="middle" font-family="Helvetica,Arial,sans-serif" font-size="12" font-weight="700" fill="#202124">DNS cache</text>
<text x="265.0" y="359.0" text-anchor="middle" font-family="Helvetica,Arial,sans-serif" font-size="12" font-weight="400" fill="#202124">(TTL)</text>
<path d="M 160,212.0 L 200,212.0" fill="none" stroke="#5F6368" stroke-width="1.5" marker-end="url(#arrow)"/>
<text x="180.0" y="206.0" text-anchor="middle" font-family="Helvetica,Arial,sans-serif" font-size="10" fill="#5F6368">1. query</text>
<path d="M 330,212.0 L 355.0,212.0 L 355.0,105.0 L 380,105.0" fill="none" stroke="#5F6368" stroke-width="1.5" marker-end="url(#arrow)"/>
<text x="355.0" y="152.5" text-anchor="middle" font-family="Helvetica,Arial,sans-serif" font-size="10" fill="#5F6368">2. root?</text>
<path d="M 330,212.0 L 380,208.0" fill="none" stroke="#5F6368" stroke-width="1.5" marker-end="url(#arrow)"/>
<text x="355.0" y="204.0" text-anchor="middle" font-family="Helvetica,Arial,sans-serif" font-size="10" fill="#5F6368">3. TLD?</text>
<path d="M 330,212.0 L 355.0,212.0 L 355.0,318.0 L 380,318.0" fill="none" stroke="#5F6368" stroke-width="1.5" marker-end="url(#arrow)"/>
<text x="355.0" y="259.0" text-anchor="middle" font-family="Helvetica,Arial,sans-serif" font-size="10" fill="#5F6368">4. auth?</text>
<path d="M 330,212.0 L 580,212.0" fill="none" stroke="#5F6368" stroke-width="1.5" marker-end="url(#arrow)"/>
<text x="455.0" y="206.0" text-anchor="middle" font-family="Helvetica,Arial,sans-serif" font-size="10" fill="#5F6368">5. answer</text>
<path d="M 265.0,244 L 265.0,320" fill="none" stroke="#5F6368" stroke-width="1.5" stroke-dasharray="6 4" marker-end="url(#arrow)"/>
<text x="265.0" y="276.0" text-anchor="middle" font-family="Helvetica,Arial,sans-serif" font-size="10" fill="#5F6368">cache TTL</text>
<text x="40" y="434" font-family="Helvetica,Arial,sans-serif" font-size="11" fill="#5F6368">TTL controls failover speed · GeoDNS / Anycast for regional steering · blunt LB only</text>
<rect x="36" y="510" width="710" height="50" rx="8" ry="8" fill="#FFFFFF" stroke="#DADCE0" stroke-width="1"/>
<text x="46" y="524" font-family="Helvetica,Arial,sans-serif" font-size="10" font-weight="700" fill="#5F6368">Legend</text>
<rect x="48" y="534" width="16" height="16" rx="4" ry="4" fill="#E8F0FE" stroke="#1A73E8" stroke-width="1.5"/>
<text x="70" y="547" font-family="Helvetica,Arial,sans-serif" font-size="11" fill="#202124">Client</text>
<rect x="163" y="534" width="16" height="16" rx="4" ry="4" fill="#F3E8FD" stroke="#A142F4" stroke-width="1.5"/>
<text x="185" y="547" font-family="Helvetica,Arial,sans-serif" font-size="11" fill="#202124">Network</text>
<rect x="278" y="534" width="16" height="16" rx="4" ry="4" fill="#FEF7E0" stroke="#F9AB00" stroke-width="1.5"/>
<text x="300" y="547" font-family="Helvetica,Arial,sans-serif" font-size="11" fill="#202124">Compute</text>
<rect x="393" y="534" width="16" height="16" rx="4" ry="4" fill="#E6F4EA" stroke="#34A853" stroke-width="1.5"/>
<text x="415" y="547" font-family="Helvetica,Arial,sans-serif" font-size="11" fill="#202124">Cache</text>
<rect x="508" y="534" width="16" height="16" rx="4" ry="4" fill="#FCE8E6" stroke="#D93025" stroke-width="1.5"/>
<text x="530" y="547" font-family="Helvetica,Arial,sans-serif" font-size="11" fill="#202124">Database</text>
<rect x="623" y="534" width="16" height="16" rx="4" ry="4" fill="#FFF8E1" stroke="#F57C00" stroke-width="1.5"/>
<text x="645" y="547" font-family="Helvetica,Arial,sans-serif" font-size="11" fill="#202124">Queue</text>
</svg>
