<?xml version="1.0" encoding="UTF-8"?>
<svg xmlns="http://www.w3.org/2000/svg" width="1100" height="560"
     viewBox="0 0 1100 560" role="img" aria-label="Payment Idempotency">

  <defs>
    <marker id="arrow" viewBox="0 0 10 10" refX="9" refY="5"
            markerWidth="7" markerHeight="7" orient="auto-start-reverse">
      <path d="M 0 0 L 10 5 L 0 10 z" fill="#5F6368"/>
    </marker>
  </defs>
<rect width="100%" height="100%" fill="#FFFFFF"/>
<text x="36" y="36" font-family="Helvetica,Arial,sans-serif" font-size="18" font-weight="700" fill="#202124">Payment Idempotency</text>
<text x="36" y="56" font-family="Helvetica,Arial,sans-serif" font-size="11" fill="#5F6368">System Design Interview Guide</text>
<rect x="40" y="200" width="150" height="70" rx="10" ry="10" fill="#E8F0FE" stroke="#1A73E8" stroke-width="1.5"/>
<text x="115.0" y="232.0" text-anchor="middle" font-family="Helvetica,Arial,sans-serif" font-size="12" font-weight="700" fill="#202124">Client</text>
<text x="115.0" y="246.0" text-anchor="middle" font-family="Helvetica,Arial,sans-serif" font-size="12" font-weight="400" fill="#202124">Idempotency-Key</text>
<rect x="240" y="210" width="130" height="56" rx="10" ry="10" fill="#FEF7E0" stroke="#F9AB00" stroke-width="1.5"/>
<text x="305.0" y="242.0" text-anchor="middle" font-family="Helvetica,Arial,sans-serif" font-size="12" font-weight="700" fill="#202124">Payments API</text>
<rect x="430" y="100" width="150" height="70" rx="10" ry="10" fill="#E6F4EA" stroke="#34A853" stroke-width="1.5"/>
<text x="505.0" y="132.0" text-anchor="middle" font-family="Helvetica,Arial,sans-serif" font-size="12" font-weight="700" fill="#202124">Idempotency</text>
<text x="505.0" y="146.0" text-anchor="middle" font-family="Helvetica,Arial,sans-serif" font-size="12" font-weight="400" fill="#202124">store</text>
<path d="M 430,260 L 430,310 A 70.0,10 0 0 0 570,310 L 570,260 A 70.0,10 0 0 0 430,260 Z" fill="#FCE8E6" stroke="#D93025" stroke-width="1.5"/>
<ellipse cx="500.0" cy="260" rx="70.0" ry="10" fill="#FCE8E6" stroke="#D93025" stroke-width="1.5"/>
<text x="500.0" y="282.0" text-anchor="middle" font-family="Helvetica,Arial,sans-serif" font-size="12" font-weight="700" fill="#202124">Ledger /</text>
<text x="500.0" y="296.0" text-anchor="middle" font-family="Helvetica,Arial,sans-serif" font-size="12" font-weight="400" fill="#202124">intents</text>
<rect x="650" y="210" width="130" height="56" rx="10" ry="10" fill="#F1F3F4" stroke="#5F6368" stroke-width="1.5"/>
<text x="715.0" y="235.0" text-anchor="middle" font-family="Helvetica,Arial,sans-serif" font-size="12" font-weight="700" fill="#202124">PSP</text>
<text x="715.0" y="249.0" text-anchor="middle" font-family="Helvetica,Arial,sans-serif" font-size="12" font-weight="400" fill="#202124">(Stripe etc.)</text>
<rect x="840" y="210" width="120" height="50" rx="10" ry="10" fill="#FFF8E1" stroke="#F57C00" stroke-width="1.5"/>
<text x="900.0" y="239.0" text-anchor="middle" font-family="Helvetica,Arial,sans-serif" font-size="12" font-weight="700" fill="#202124">Webhook Q</text>
<path d="M 190,235.0 L 240,238.0" fill="none" stroke="#5F6368" stroke-width="1.5" marker-end="url(#arrow)"/>
<text x="215.0" y="230.5" text-anchor="middle" font-family="Helvetica,Arial,sans-serif" font-size="10" fill="#5F6368">POST /charge</text>
<path d="M 370,238.0 L 400.0,238.0 L 400.0,135.0 L 430,135.0" fill="none" stroke="#5F6368" stroke-width="1.5" marker-end="url(#arrow)"/>
<text x="400.0" y="180.5" text-anchor="middle" font-family="Helvetica,Arial,sans-serif" font-size="10" fill="#5F6368">lookup/save</text>
<path d="M 370,238.0 L 400.0,238.0 L 400.0,285.0 L 430,285.0" fill="none" stroke="#5F6368" stroke-width="1.5" marker-end="url(#arrow)"/>
<text x="400.0" y="255.5" text-anchor="middle" font-family="Helvetica,Arial,sans-serif" font-size="10" fill="#5F6368">intent</text>
<path d="M 370,238.0 L 650,238.0" fill="none" stroke="#5F6368" stroke-width="1.5" marker-end="url(#arrow)"/>
<text x="510.0" y="232.0" text-anchor="middle" font-family="Helvetica,Arial,sans-serif" font-size="10" fill="#5F6368">create</text>
<path d="M 780,238.0 L 840,235.0" fill="none" stroke="#5F6368" stroke-width="1.5" marker-end="url(#arrow)"/>
<text x="810.0" y="230.5" text-anchor="middle" font-family="Helvetica,Arial,sans-serif" font-size="10" fill="#5F6368">events</text>
<path d="M 840,235.0 L 370,238.0" fill="none" stroke="#5F6368" stroke-width="1.5" stroke-dasharray="6 4" marker-end="url(#arrow)"/>
<text x="605.0" y="230.5" text-anchor="middle" font-family="Helvetica,Arial,sans-serif" font-size="10" fill="#5F6368">reconcile</text>
<text x="40" y="414" font-family="Helvetica,Arial,sans-serif" font-size="11" fill="#5F6368">Same key → same response · no double charge · webhook reorder → intent state machine</text>
<rect x="36" y="490" width="710" height="50" rx="8" ry="8" fill="#FFFFFF" stroke="#DADCE0" stroke-width="1"/>
<text x="46" y="504" font-family="Helvetica,Arial,sans-serif" font-size="10" font-weight="700" fill="#5F6368">Legend</text>
<rect x="48" y="514" width="16" height="16" rx="4" ry="4" fill="#E8F0FE" stroke="#1A73E8" stroke-width="1.5"/>
<text x="70" y="527" font-family="Helvetica,Arial,sans-serif" font-size="11" fill="#202124">Client</text>
<rect x="163" y="514" width="16" height="16" rx="4" ry="4" fill="#FEF7E0" stroke="#F9AB00" stroke-width="1.5"/>
<text x="185" y="527" font-family="Helvetica,Arial,sans-serif" font-size="11" fill="#202124">Compute</text>
<rect x="278" y="514" width="16" height="16" rx="4" ry="4" fill="#E6F4EA" stroke="#34A853" stroke-width="1.5"/>
<text x="300" y="527" font-family="Helvetica,Arial,sans-serif" font-size="11" fill="#202124">Cache</text>
<rect x="393" y="514" width="16" height="16" rx="4" ry="4" fill="#FCE8E6" stroke="#D93025" stroke-width="1.5"/>
<text x="415" y="527" font-family="Helvetica,Arial,sans-serif" font-size="11" fill="#202124">Database</text>
<rect x="508" y="514" width="16" height="16" rx="4" ry="4" fill="#FFF8E1" stroke="#F57C00" stroke-width="1.5"/>
<text x="530" y="527" font-family="Helvetica,Arial,sans-serif" font-size="11" fill="#202124">Queue</text>
<rect x="623" y="514" width="16" height="16" rx="4" ry="4" fill="#F1F3F4" stroke="#5F6368" stroke-width="1.5"/>
<text x="645" y="527" font-family="Helvetica,Arial,sans-serif" font-size="11" fill="#202124">External</text>
</svg>
